<?xml version="1.0" encoding="utf-8"?>
<!-- Generator: Adobe Illustrator 17.1.0, SVG Export Plug-In . SVG Version: 6.00 Build 0)  -->
<!DOCTYPE svg PUBLIC "-//W3C//DTD SVG 1.1//EN" "http://www.w3.org/Graphics/SVG/1.1/DTD/svg11.dtd">
<svg version="1.1" id="Layer_1" xmlns="http://www.w3.org/2000/svg" xmlns:xlink="http://www.w3.org/1999/xlink" x="0px" y="0px"
	 viewBox="0 0 84.81 127.513" style="enable-background:new 0 0 84.81 127.513;" xml:space="preserve">
<style type="text/css">
	.st0{fill:#3D58A6;}
	.st1{fill:#EE4036;}
	.st2{display:none;}
	.st3{display:inline;}
	.st4{fill:none;stroke:#000000;stroke-linecap:round;stroke-linejoin:round;stroke-miterlimit:10;}
	.st5{stroke:#000000;stroke-linecap:round;stroke-linejoin:round;stroke-miterlimit:10;}
	.st6{display:inline;fill:none;}
	.st7{enable-background:new    ;}
	.st8{display:inline;stroke:#000000;stroke-linecap:round;stroke-linejoin:round;stroke-miterlimit:10;}
	.st9{fill:none;}
	.st10{fill:#D7E0E5;}
</style>
<path class="st0" d="M84.112,82.516c-0.834-0.707-2.081-0.602-2.786,0.227L67.633,98.814l-8.75-6.933
	c-0.851-0.677-2.097-0.535-2.777,0.315c-0.68,0.85-0.538,2.089,0.316,2.766l10.247,8.121c0.362,0.287,0.797,0.428,1.23,0.428
	c0.561,0,1.119-0.238,1.509-0.694L84.34,85.292C85.047,84.461,84.945,83.219,84.112,82.516z M70.244,115.702
	c-1.091,0-1.977,0.881-1.977,1.968c0,3.256-2.661,5.905-5.931,5.905H9.884c-3.27,0-5.931-2.65-5.931-5.905V9.842
	c0-3.256,2.661-5.905,5.931-5.905h52.452c3.27,0,5.931,2.65,5.931,5.905v60.254c0,1.088,0.886,1.968,1.977,1.968
	c1.091,0,1.977-0.881,1.977-1.968v-33.61c1.505-0.303,2.64-1.63,2.64-3.215v-8.613c0-1.585-1.135-2.912-2.64-3.215V9.842
	C72.221,4.415,67.787,0,62.336,0H9.884C4.433,0,0,4.415,0,9.842V117.67c0,5.428,4.433,9.842,9.884,9.842h52.452
	c5.017,0,9.174-3.741,9.803-8.571c0.054-0.178,0.083-0.367,0.083-0.563v-0.709C72.221,116.583,71.335,115.702,70.244,115.702z
	 M45.996,10.03c1.091,0,1.977-0.881,1.977-1.968s-0.886-1.968-1.977-1.968H26.227c-1.091,0-1.977,0.881-1.977,1.968
	s0.886,1.968,1.977,1.968H45.996z M30.615,116.769c0,3.017,2.466,5.472,5.496,5.472s5.496-2.455,5.496-5.472
	s-2.466-5.471-5.496-5.471S30.615,113.753,30.615,116.769z M37.653,116.769c0,0.846-0.691,1.535-1.542,1.535
	c-0.851,0-1.542-0.689-1.542-1.535c0-0.846,0.691-1.534,1.542-1.534C36.962,115.235,37.653,115.924,37.653,116.769z M59.734,71.943
	c1.205,0,2.18-0.972,2.18-2.172V25.706c0-3.665-3.536-6.88-7.568-6.88H18.602c-4.173,0-7.568,3.381-7.568,7.537v73.475
	c0,4.156,3.395,7.537,7.568,7.537h31.186c1.205,0,2.18-0.972,2.18-2.172s-0.975-2.172-2.18-2.172H18.602
	c-1.769,0-3.208-1.433-3.208-3.194V26.362c0-1.761,1.439-3.194,3.208-3.194h35.743c1.86,0,3.208,1.516,3.208,2.538v44.066
	C57.554,70.972,58.529,71.943,59.734,71.943z"/>
</svg>
